<?xml version="1.0" encoding="UTF-8" standalone="no"?>
<!-- Created with Inkscape (http://www.inkscape.org/) -->

<svg
   width="20"
   height="20"
   viewBox="0 0 20 20"
   version="1.1"
   id="svg1"
   inkscape:export-filename="a_star_grid_map_2d.svg"
   inkscape:export-xdpi="96"
   inkscape:export-ydpi="96"
   xmlns:inkscape="http://www.inkscape.org/namespaces/inkscape"
   xmlns:sodipodi="http://sodipodi.sourceforge.net/DTD/sodipodi-0.dtd"
   xmlns="http://www.w3.org/2000/svg"
   xmlns:svg="http://www.w3.org/2000/svg">
  <sodipodi:namedview
     id="namedview1"
     pagecolor="#ffffff"
     bordercolor="#000000"
     borderopacity="0.25"
     inkscape:showpageshadow="2"
     inkscape:pageopacity="0.0"
     inkscape:pagecheckerboard="0"
     inkscape:deskcolor="#d1d1d1"
     inkscape:document-units="mm">
    <inkscape:page
       x="0"
       y="0"
       width="20"
       height="20"
       id="page2"
       margin="0"
       bleed="0" />
  </sodipodi:namedview>
  <defs
     id="defs1" />
  <g
     inkscape:label="Layer 1"
     inkscape:groupmode="layer"
     id="layer1">
    <path
       style="font-size:149.333px;line-height:0.7;font-family:'Ubuntu Condensed';-inkscape-font-specification:'Ubuntu Condensed, ';letter-spacing:-10px;fill:#8da5f3;stroke:#8da5f3;stroke-width:0.695485"
       d="m 7.8878475,1.1839674 q 0.623154,1.9473548 1.220342,3.946638 0.6231533,1.9733177 1.1943775,4.1543549 0.597189,2.1810367 1.168411,4.6217197 0.597189,2.440684 1.194378,5.270838 H 10.328531 Q 10.120815,18.009107 9.887131,16.866656 9.6794124,15.724209 9.4457299,14.581762 H 3.7854228 Q 3.5257747,15.724209 3.3180577,16.866656 3.1103394,18.009107 2.9026224,19.177518 H 0.64369089 Q 1.2149159,16.347364 1.8121038,13.90668 2.4092918,11.465997 2.9805166,9.2849603 3.5777045,7.1039231 4.1748939,5.1306054 4.798046,3.1313222 5.4211995,1.1839674 Z M 6.6155767,3.8323699 Q 5.9664589,5.9874416 5.3692695,8.1684775 4.7720816,10.349513 4.2268224,12.634409 H 8.9783668 Q 8.4590715,10.349513 7.8618836,8.1684775 7.2646946,5.9874416 6.6155767,3.8323699 Z M 12.043151,2.5341328 q 0.752976,0.2596484 1.47999,0.7270134 0.752976,0.4673637 1.324201,0.8827992 Q 14.665588,3.4688632 14.431906,2.6379927 14.224187,1.7811566 14.224187,1.0022147 V 0.82046205 h 2.284895 V 1.0022147 q 0,0.7789419 -0.233681,1.635778 -0.207719,0.8308705 -0.415436,1.5059527 0.597188,-0.3894698 1.298236,-0.856835 0.701047,-0.4933292 1.454024,-0.7270119 l 0.181754,-0.051925 0.675081,2.1810359 -0.129829,0.051925 q -0.752978,0.2336825 -1.609814,0.2856124 -0.856832,0.051925 -1.531915,0.103865 0.519293,0.4413996 1.168411,0.9866589 0.675082,0.5192952 1.116482,1.1424472 L 18.586262,7.389546 16.742767,8.7397114 16.664877,8.5839231 Q 16.197514,7.96077 15.885936,7.1558638 15.57436,6.3509576 15.314713,5.7018398 15.055064,6.3509576 14.743489,7.1558638 14.431913,7.96077 13.990512,8.5579592 L 13.886655,8.7137475 12.04316,7.3635821 12.172988,7.233754 Q 12.614394,6.6106004 13.289475,6.0653425 13.990524,5.5200831 14.50982,5.0786822 13.808771,5.026756 12.951935,5.0007934 12.095099,4.9748308 11.342123,4.6892167 l -0.103856,-0.077889 0.649118,-2.1291061 z"
       id="text1"
       aria-label="A*" />
  </g>
</svg>
