<?xml version="1.0" encoding="UTF-8" standalone="no"?>
<!-- Created with Inkscape (http://www.inkscape.org/) -->

<svg
   width="128"
   height="128"
   viewBox="0 0 128 128"
   version="1.1"
   id="svg1"
   xml:space="preserve"
   inkscape:export-filename="../media/icon_64x64.png"
   inkscape:export-xdpi="48"
   inkscape:export-ydpi="48"
   sodipodi:docname="icon_128x128.svg"
   inkscape:version="1.4.3 (0d15f75042, 2025-12-25)"
   xmlns:inkscape="http://www.inkscape.org/namespaces/inkscape"
   xmlns:sodipodi="http://sodipodi.sourceforge.net/DTD/sodipodi-0.dtd"
   xmlns="http://www.w3.org/2000/svg"
   xmlns:svg="http://www.w3.org/2000/svg"><sodipodi:namedview
     id="namedview1"
     pagecolor="#ffffff"
     bordercolor="#000000"
     borderopacity="0.25"
     inkscape:showpageshadow="2"
     inkscape:pageopacity="0.0"
     inkscape:pagecheckerboard="0"
     inkscape:deskcolor="#d1d1d1"
     inkscape:document-units="px"
     showguides="true"
     inkscape:zoom="11.313708"
     inkscape:cx="21.876116"
     inkscape:cy="80.963726"
     inkscape:window-width="3840"
     inkscape:window-height="2123"
     inkscape:window-x="3840"
     inkscape:window-y="0"
     inkscape:window-maximized="1"
     inkscape:current-layer="layer1"><sodipodi:guide
       position="10.002026,-472.90809"
       orientation="1,0"
       id="guide2"
       inkscape:locked="false" /><sodipodi:guide
       position="27.746318,-482.01203"
       orientation="0,-1"
       id="guide3"
       inkscape:locked="false" /><sodipodi:guide
       position="63.993164,230.70726"
       orientation="1,0"
       id="guide4"
       inkscape:locked="false" /><sodipodi:guide
       position="6.4522267,-478.836"
       orientation="1,0"
       id="guide5"
       inkscape:locked="false" /><sodipodi:guide
       position="5.0136304,-478.84477"
       orientation="1,0"
       id="guide6"
       inkscape:locked="false" /><inkscape:page
       x="0"
       y="0"
       width="128"
       height="128"
       id="page2"
       margin="0"
       bleed="0" /><sodipodi:guide
       position="114.29239,63.922592"
       orientation="0,-1"
       id="guide1"
       inkscape:locked="false" /></sodipodi:namedview><defs
     id="defs1" /><g
     inkscape:label="Layer 1"
     inkscape:groupmode="layer"
     id="layer1"><path
       style="font-size:149.333px;line-height:0.7;font-family:'Ubuntu Condensed';-inkscape-font-specification:'Ubuntu Condensed, ';letter-spacing:-10px;fill:#8da5f3;stroke:#8da5f3;stroke-width:4"
       d="m 53.650565,15.137236 q 3.583992,11.199975 7.01865,22.698615 3.583992,11.349307 6.869318,23.893279 3.434659,12.543971 6.719985,26.581273 3.434659,14.037297 6.869317,30.314597 H 67.687866 q -1.194664,-6.71998 -2.538661,-13.29064 -1.194664,-6.570648 -2.538661,-13.1413 H 30.055952 q -1.49333,6.570652 -2.687994,13.1413 -1.194664,6.57066 -2.389328,13.29064 H 11.98666 Q 15.271986,102.3477 18.706645,88.310403 22.141303,74.273101 25.426629,61.72913 28.861288,49.185158 32.295947,37.835851 35.879939,26.337211 39.46393,15.137236 Z M 46.333248,30.369201 Q 42.599923,42.76384 39.165264,55.307811 35.730606,67.851783 32.594613,80.993086 H 59.92255 Q 56.935891,67.851783 53.501232,55.307811 50.066573,42.76384 46.333248,30.369201 Z m 31.216051,-7.466649 q 4.330657,1.49333 8.51198,4.181324 4.330657,2.687993 7.615983,5.077321 Q 92.631931,28.27854 91.287934,23.499884 90.09327,18.571895 90.09327,14.091905 v -1.045331 h 13.1413 v 1.045331 q 0,4.47999 -1.34399,9.407979 -1.19467,4.778656 -2.389331,8.661313 3.434661,-2.239995 7.466651,-4.927988 4.03199,-2.837327 8.36265,-4.181324 l 1.04533,-0.298666 3.88265,12.543971 -0.74666,0.298666 q -4.33066,1.343997 -9.25865,1.642663 -4.92798,0.298666 -8.81064,0.597332 2.98666,2.538661 6.71998,5.674654 3.88266,2.98666 6.42132,6.570651 l 0.59733,0.746665 -10.60264,7.765316 -0.448,-0.895998 q -2.68799,-3.583992 -4.479988,-8.213315 -1.791996,-4.629322 -3.285326,-8.362647 -1.49333,3.733325 -3.285326,8.362647 -1.791996,4.629323 -4.330657,8.063982 l -0.597332,0.895998 -10.602642,-7.765316 0.746665,-0.746665 q 2.538661,-3.583991 6.421318,-6.719984 4.031991,-3.135993 7.018651,-5.674654 -4.031991,-0.298666 -8.95998,-0.447999 -4.927988,-0.149333 -9.258645,-1.791996 l -0.597332,-0.447999 3.733325,-12.245305 z"
       id="text1"
       aria-label="A*" /></g></svg>
